# xmcd CD database file
#
# Track frame offsets:
#	150
#	13289
#	28159
#	41532
#	54559
#	64351
#	88140
#	99492
#	110885
#	123880
#	137448
#	152290
#	172404
#
# Disc length: 2511 seconds
#
# Revision: 0
# Processed by: cddbd v1.4PL0 Copyright (c) Steve Scherf et al.
# Submitted via: CDex 1.50
#
DISCID=b509cd0d
DTITLE=David Waddell - Last One To Know
DYEAR=2003
DGENRE=Country
TTITLE0=Hell Bound Train
TTITLE1=Stone Country
TTITLE2=Dixie Flyer
TTITLE3=Real Go Getter
TTITLE4=Divorce City, USA
TTITLE5=Talk of the Town
TTITLE6=911, Jesus Christ
TTITLE7=High Hopes
TTITLE8=Ol' #3
TTITLE9=WWW Lonesome.com
TTITLE10=One More Day, One More Dollar
TTITLE11=Plain Dirt Country
TTITLE12=The First Time (To Be the Last One to Know)
EXTD=YEAR: 2003
EXTT0=
EXTT1=
EXTT2=
EXTT3=
EXTT4=
EXTT5=
EXTT6=
EXTT7=
EXTT8=
EXTT9=
EXTT10=
EXTT11=
EXTT12=
PLAYORDER=
